#!OML:ASF F:\VICON\USERDATA\INSTALL\rory3\rory3.ASF
:FULLY-SPECIFIED
:DEGREES
55
root 0.3550236241956227 18.72935068136985 24.448342824201244 6.391507796685556 2.4961919575278633 -4.388350457360846
lfemur -32.12816440117702 -2.4871967081488338 -17.53832450331724
ltibia 40.60827132922152
lfoot -0.25912195164940305 -10.565808137731253
ltoes -15.975591187572999
rfemur -4.260578081392751 8.541733694288284 32.753083252718746
rtibia 36.57872010036368
rfoot 28.10898573073071 1.5889011308883454
rtoes 16.83496335321737
lowerback 11.682488643953207 2.8574829177375487 5.493719286998632
upperback -2.6925183435261353 4.784901342182881 0.7954054101092294
thorax -8.602780307860668 2.025578955815997 -3.496637277908438
lowerneck -19.726722383433515 -4.728084323980758 -1.9330813042898405
upperneck 14.198118447171193 -6.338440238503765 2.111518828486723
head 7.744419586257938 -2.954019378239472 0.25519028635343854
lclavicle -1.7266450662932314e-15 1.7852169783895712e-15
lhumerus -68.42995036481175 -8.801297231590663 97.93218888432892
lradius 108.45625071329107
lwrist 33.658136788256456
lhand -25.148953728212895 0.26638408277475767
lfingers 7.12502
lthumb 1.4308009554388463 30.655566656203668
rclavicle -1.7245802857259197e-15 1.7880638972362304e-15
rhumerus -45.742084361806405 14.267553492121529 -96.79939384522442
rradius 117.89132747777865
rwrist -6.875707202060283
rhand -17.29392290556198 39.28867003807809
rfingers 7.12502
rthumb 9.333398195557594 9.258410696649547
56
root 0.3463137181325474 18.67349862489998 25.510862129625423 6.24922657884207 2.172106444313618 -5.528584474941527
lfemur -30.644774697893972 -2.2032807836847814 -16.693675711243948
ltibia 33.62735214708074
lfoot 1.0265583067240436 -10.484051654471754
ltoes -15.8013698981463
rfemur -3.946752409737492 9.822606220491451 33.830367593944345
rtibia 32.50290017187762
rfoot 28.553338602195744 0.9934617763160007
rtoes 17.808687004298136
lowerback 11.964983825907296 3.035377033418615 6.181844889028438
upperback -2.572121419636466 5.179208560388565 0.9420395709757232
thorax -8.51821351178287 2.2220746351311007 -3.722817895157751
lowerneck -19.67984583772481 -4.748366979002344 -2.03435846935666
upperneck 14.605262682716273 -6.38532042673123 2.215992079122947
head 7.894015666446377 -2.9714146405789914 0.29309214681811535
lclavicle -1.726765127782657e-15 1.78512976586656e-15
lhumerus -68.30283920331847 -8.744622732481478 97.7369764328527
lradius 109.45951434803074
lwrist 33.328544064142136
lhand -25.165208068918044 0.49178956244699923
lfingers 7.12502
lthumb 1.477424495953011 30.786401065266205
rclavicle -1.7238417010057055e-15 1.7887175151257437e-15
rhumerus -46.89246765656134 14.031162248419696 -97.62065689790762
rradius 118.42002015873202
rwrist -6.830154815265704
rhand -17.363845502734872 39.25033593956044
rfingers 7.12502
rthumb 9.219602239854776 9.248743513993809
57
root 0.32983807741481497 18.602313289357976 26.45764328437192 5.786127729255153 1.3935771763124616 -5.213277979076465
lfemur -28.436216957 -1.5873323874770267 -17.36627103948603
ltibia 28.345077790053967
lfoot 1.3583140347307738 -9.681191872046282
ltoes -17.413120504472914
rfemur -4.3188978569281815 10.655278520094026 33.38749636316244
rtibia 29.611468763714335
rfoot 27.630662819142117 -0.11556857605875415
rtoes 15.749752890638494
lowerback 12.276413146714612 3.315823261052764 5.648196140846065
upperback -2.1786114207127567 5.411603244445837 0.9307738386706464
thorax -8.421505266669117 2.382976314135114 -3.7384036456827956
lowerneck -19.702646848582077 -4.727688348351975 -2.154498463859673
upperneck 14.987767496891236 -6.362929879741091 2.3165561162843193
head 8.046869794442506 -2.9531058543994684 0.34047733258348695
lclavicle -1.7269293494601024e-15 1.7850106451524687e-15
lhumerus -67.61710617116543 -8.799624787875409 97.70085208835933
lradius 110.26151719773758
lwrist 32.869985371584534
lhand -25.016221080698852 0.9483591079182356
lfingers 7.12502
lthumb 1.6217924332919695 31.037798610703447
rclavicle -1.7227895587980468e-15 1.789564295047912e-15
rhumerus -47.99514668734863 13.583604289037456 -98.34880373020695
rradius 118.79671227995287
rwrist -6.840021443529972
rhand -17.402998798289243 39.21411240653883
rfingers 7.12502
rthumb 9.135517378061152 9.252670975592528
58
root 0.3011158244148465 18.49754660579027 27.729598910780332 5.165362621948022 2.067894275327545 -4.793417439866579
lfemur -26.550761187633828 -2.149691306843333 -18.39047628802843
ltibia 24.807383366442956
lfoot 1.3798801651779409 -9.28734739884241
ltoes -18.26622109400664
rfemur -5.089114696277662 10.045379769307514 32.644093600994744
rtibia 27.95588080537315
rfoot 26.21733735147604 -1.1604840256126012
rtoes 14.675395517584512
lowerback 12.739469599295312 3.1465298077113624 5.35392839873488
upperback -1.8439944979062965 5.238902314832335 0.9120636037285036
thorax -8.425121102593444 2.3771175988617426 -3.5267970659277528
lowerneck -19.67316099814051 -4.679411352307772 -2.26555556565146
upperneck 15.304605121894449 -6.286102392169298 2.3894437689929164
head 8.16254241576658 -2.9117374996661445 0.38709070401265877
lclavicle -1.7268226959342715e-15 1.7850880078935504e-15
lhumerus -66.49853779385414 -9.05587520788004 97.83909562356546
lradius 110.8473011432317
lwrist 32.28508035520372
lhand -24.807071845579635 1.2354415643885073
lfingers 7.12502
lthumb 1.7817122212167027 31.172991014883102
rclavicle -1.7222289628852282e-15 1.7900247928791015e-15
rhumerus -48.94146014596818 12.99783378005682 -98.9257618058061
rradius 118.9205209194926
rwrist -6.875009001312533
rhand -17.44814469620596 39.167526567026535
rfingers 7.12502
rthumb 9.062200187376163 9.249172015127408
59
root 0.2766279770310719 18.324556987566314 28.635785143293475 4.70012435175356 2.167438812293347 -4.402637336206226
lfemur -25.030041577025102 -2.405960368504264 -19.3079367757374
ltibia 23.162205354609053
lfoot 1.5271570538602666 -9.976328146641483
ltoes -16.96746966680007
rfemur -5.798885253045141 9.816657711726016 31.994353271532983
rtibia 27.712334364098382
rfoot 24.619473564805332 -1.482584932724806
rtoes 16.474534114753375
lowerback 12.94918028674194 3.2144988057500625 4.909724151010147
upperback -1.5465566247002958 5.229623186371101 0.9868947366279603
thorax -8.468665857049686 2.3762766529889183 -3.237072201001173
lowerneck -19.618674492031637 -4.633839837356085 -2.369157637589521
upperneck 15.573054164919103 -6.197106376497211 2.432733329556146
head 8.247452852548308 -2.8669289334632904 0.42014208562701355
lclavicle -1.7262717507502403e-15 1.785487657552065e-15
lhumerus -64.87932802310661 -9.545203334126942 98.13504281597798
lradius 111.15205716524422
lwrist 31.54661073774439
lhand -24.609678178256534 1.2817919229349775
lfingers 7.12502
lthumb 1.904067337250752 31.177795018853214
rclavicle -1.7216189431993833e-15 1.79046906643922e-15
rhumerus -49.763295205986644 12.332262641389176 -99.35044124099586
rradius 118.75915272543448
rwrist -6.923039985545795
rhand -17.51081796075175 39.111684903542
rfingers 7.12502
rthumb 9.023939884141162 9.260847728601478
60
root 0.24770007501495442 18.11732114286546 29.721189350262065 3.5658415250024604 3.14633750166577 -4.072027382791743
lfemur -23.936874370662714 -3.0394453626388116 -20.06624221872625
ltibia 23.82888277782788
lfoot 1.357924605926702 -11.421850455151299
ltoes -12.558604727055151
rfemur -6.159297467552493 8.328867212595101 31.367130741643166
rtibia 28.411821023589482
rfoot 22.622130413607643 -0.9288491805007553
rtoes 17.131247658283563
lowerback 13.809168510113427 2.9608113005677437 4.473945726572795
upperback -1.3240178156193017 4.89970826136073 1.0256294140690168
thorax -8.60078937968306 2.254177559341011 -2.808165344398138
lowerneck -19.50002312666797 -4.585565744793369 -2.433725687977507
upperneck 15.764219892160469 -6.0995078685931885 2.4347522920840707
head 8.29934178097939 -2.8216672328389327 0.4304082835009192
lclavicle -1.726358954513127e-15 1.785424213714888e-15
lhumerus -63.049926470594016 -10.347883332066926 98.42518664662906
lradius 111.31316500428355
lwrist 31.091036064902553
lhand -24.53402150880342 1.223904607577655
lfingers 7.12502
lthumb 1.87684238750039 31.135607904230913
rclavicle -1.7217563790276832e-15 1.790383329823933e-15
rhumerus -50.55652631255032 11.576499752528335 -99.6277718727751
rradius 118.3426385944049
rwrist -7.0416146651937055
rhand -17.528615722560023 39.077238991284425
rfingers 7.12502
rthumb 9.01065270913842 9.286673798499585
